<?xml version="1.0" encoding="utf-8"?>
<!-- Generator: Adobe Illustrator 20.0.0, SVG Export Plug-In . SVG Version: 6.00 Build 0)  -->
<svg version="1.1" id="Layer_1" xmlns="http://www.w3.org/2000/svg" xmlns:xlink="http://www.w3.org/1999/xlink" x="0px" y="0px"
	 viewBox="0 0 140 32" style="enable-background:new 0 0 140 32;" xml:space="preserve">
<style type="text/css">
	.st0{fill:#FFFFFF;}
	.st1{font-family:'Effra-Light';}
	.st2{font-size:3.2114px;}
</style>
<g>
	<g>
		<g>
			<path class="st0" d="M44.2,8.7l0.1-0.1c0.1-0.1,0.1-0.1,0.2,0c0.1,0.1,0.8,0.7,1.7,0.7c0.8,0,1.6-0.6,1.6-1.3
				c0-0.8-0.7-1.2-1.8-1.6c-1.1-0.4-1.8-0.8-1.8-1.9c0-0.7,0.6-1.7,2-1.7c0.9,0,1.6,0.5,1.6,0.5c0,0,0.1,0.1,0,0.2
				c0,0-0.1,0.1-0.1,0.1c-0.1,0.1-0.1,0.1-0.2,0c0,0-0.7-0.4-1.4-0.4c-1.1,0-1.6,0.7-1.6,1.3c0,0.8,0.6,1.2,1.5,1.5
				c1.3,0.4,2.1,0.9,2.1,2c0,0.9-1,1.7-2,1.7c-1.1,0-1.9-0.7-2-0.8C44.2,8.8,44.1,8.8,44.2,8.7"/>
			<path class="st0" d="M50.6,3.3h-1.8c-0.1,0-0.1-0.1-0.1-0.1V3.1c0-0.1,0.1-0.1,0.1-0.1h4C52.9,2.9,53,3,53,3.1v0.2
				c0,0.1,0,0.1-0.1,0.1H51v6.1c0,0.1-0.1,0.1-0.1,0.1h-0.2c-0.1,0-0.1-0.1-0.1-0.1V3.3z"/>
			<path class="st0" d="M53.9,3.1c0-0.1,0.1-0.1,0.1-0.1h0.2c0.1,0,0.1,0.1,0.1,0.1v4c0,1.2,0.8,2.1,2,2.1c1.2,0,2-0.9,2-2.1v-4
				c0-0.1,0-0.1,0.1-0.1h0.2c0.1,0,0.1,0.1,0.1,0.1v4.1c0,1.4-1,2.5-2.4,2.5c-1.5,0-2.4-1.1-2.4-2.5V3.1z"/>
			<path class="st0" d="M60.7,3.1c0-0.1,0.1-0.1,0.1-0.1h2c1.8,0,3.3,1.5,3.3,3.3c0,1.8-1.5,3.3-3.3,3.3h-2c-0.1,0-0.1-0.1-0.1-0.1
				V3.1z M62.7,9.1c1.6,0,2.9-1.3,2.9-2.9c0-1.6-1.3-2.9-2.9-2.9h-1.6v5.8H62.7z"/>
			<path class="st0" d="M67.6,3.1c0-0.1,0.1-0.1,0.1-0.1h0.2C68,2.9,68,3,68,3.1v6.4c0,0.1-0.1,0.1-0.1,0.1h-0.2
				c-0.1,0-0.1-0.1-0.1-0.1V3.1z"/>
			<path class="st0" d="M84.5,3.3h-1.8c-0.1,0-0.1-0.1-0.1-0.1V3.1c0-0.1,0.1-0.1,0.1-0.1h4c0.1,0,0.1,0.1,0.1,0.1v0.2
				c0,0.1,0,0.1-0.1,0.1h-1.8v6.1c0,0.1-0.1,0.1-0.1,0.1h-0.2c-0.1,0-0.1-0.1-0.1-0.1V3.3z"/>
			<path class="st0" d="M89.7,3.3h-1.8c-0.1,0-0.1-0.1-0.1-0.1V3.1c0-0.1,0.1-0.1,0.1-0.1h4C92,2.9,92,3,92,3.1v0.2
				c0,0.1,0,0.1-0.1,0.1h-1.8v6.1c0,0.1-0.1,0.1-0.1,0.1h-0.2c-0.1,0-0.1-0.1-0.1-0.1V3.3z"/>
			<path class="st0" d="M95.9,2.8c1.9,0,3.4,1.5,3.4,3.4c0,1.9-1.5,3.4-3.4,3.4c-1.9,0-3.4-1.5-3.4-3.4C92.5,4.4,94,2.8,95.9,2.8
				 M95.9,9.2c1.6,0,3-1.3,3-3c0-1.7-1.3-3-3-3s-2.9,1.3-2.9,3C92.9,7.9,94.2,9.2,95.9,9.2"/>
			<path class="st0" d="M78.2,2.9C78.2,2.9,78.2,2.9,78.2,2.9h-4.6c0,0,0,0,0,0c-1.8,0-3.3,1.5-3.3,3.3c0,1.8,1.4,3.3,3.3,3.3
				c0,0,0,0,0,0v0h4.6v0c0,0,0,0,0,0c1.8,0,3.3-1.5,3.3-3.3C81.5,4.4,80.1,2.9,78.2,2.9 M78.2,9.1C78.2,9.1,78.2,9.1,78.2,9.1
				L78.2,9.1l-4.6,0v0c0,0,0,0,0,0c-1.6,0-2.9-1.3-2.9-2.9c0-1.6,1.3-2.9,2.9-2.9c0,0,0,0,0,0h4.6c0,0,0,0,0,0
				c1.6,0,2.9,1.3,2.9,2.9C81.1,7.8,79.8,9.1,78.2,9.1"/>
		</g>
	</g>
</g>
<g>
	<text transform="matrix(1 0 0 1 99.9023 4.8251)" class="st0 st1 st2">® </text>
</g>
</svg>
